<svg xmlns="http://www.w3.org/2000/svg" viewBox="0 0 72 72"><path fill="#EA5A47" d="M44.625 26.25S49 19 47 18s-5 1-5 1 2-7-2-7-5 4-5 4-1.457-8.296-7-6c-3.465 1.435-5 5 0 15"/><path fill="#FCEA2B" d="M36 64s30-1 15-29c0 0-4-11-15-11-3.104 0-5.65.717-7.73 1.79-5.288 2.732-7.552 7.774-8.27 9.21-1 2-16 27 16 29z"/><path fill="#F1B31C" d="M36 43s18-1 0 18c0 0-18-18 0-18z"/><g><path fill="none" stroke="#000" stroke-linecap="round" stroke-linejoin="round" stroke-miterlimit="10" stroke-width="2" d="M44.625 26.25S49 19 47 18s-5 1-5 1 2-7-2-7-5 4-5 4-1.457-8.296-7-6c-3.465 1.435-5 5 0 15"/><path fill="none" stroke="#000" stroke-linecap="round" stroke-linejoin="round" stroke-miterlimit="10" stroke-width="2" d="M36 64s30-1 15-29c0 0-4-11-15-11-3.104 0-5.65.717-7.73 1.79-5.288 2.732-7.552 7.774-8.27 9.21-1 2-16 27 16 29z"/><circle cx="27" cy="39" r="2"/><circle cx="45" cy="39" r="2"/><path fill="none" stroke="#000" stroke-linecap="round" stroke-linejoin="round" stroke-miterlimit="10" stroke-width="2" d="M36 43s18-1 0 18c0 0-18-18 0-18z"/></g></svg>